<svg xmlns="http://www.w3.org/2000/svg" width="94" height="85" viewBox="0 0 94 85">
    <g fill="none" fill-rule="nonzero">
        <path fill="#C8D400" d="M79.985 9.004c-3.259 0-5.91 2.474-5.91 5.516 0 1.353.526 2.593 1.395 3.554l-5.405 7.473c-.498.689-.303 1.624.435 2.089.276.174.59.257.9.257.517 0 1.026-.232 1.338-.663l5.403-7.471c.58.178 1.2.276 1.844.276 3.258 0 5.91-2.474 5.91-5.515 0-3.041-2.651-5.516-5.91-5.516zm0 8.023c-1.482 0-2.687-1.125-2.687-2.507 0-1.383 1.205-2.507 2.687-2.507 1.481 0 2.686 1.124 2.686 2.507 0 1.382-1.205 2.507-2.686 2.507z"/>
        <path fill="#909090" d="M69.11 29.481c-.706-.455-1.664-.277-2.14.398l-7.302 10.348a5.861 5.861 0 0 0-1.764-.271 5.794 5.794 0 0 0-3.383 1.078L41.733 31.68a5.173 5.173 0 0 0 .397-1.987c0-2.982-2.536-5.408-5.654-5.408-3.117 0-5.654 2.426-5.654 5.408 0 .877.22 1.704.61 2.437l-13.428 11.82a5.81 5.81 0 0 0-2.955-.8c-3.118 0-5.654 2.426-5.654 5.409 0 2.982 2.536 5.408 5.654 5.408 3.117 0 5.653-2.426 5.653-5.408 0-.877-.22-1.705-.61-2.438l13.427-11.82c.861.508 1.874.801 2.957.801 1.268 0 2.44-.4 3.384-1.078l12.787 9.352a5.174 5.174 0 0 0-.397 1.988c0 2.982 2.537 5.409 5.654 5.409s5.654-2.427 5.654-5.409a5.247 5.247 0 0 0-1.335-3.485l7.303-10.35c.476-.676.29-1.593-.416-2.049zM15.048 51.018c-1.417 0-2.57-1.103-2.57-2.459 0-1.355 1.153-2.458 2.57-2.458 1.418 0 2.57 1.103 2.57 2.458 0 1.356-1.152 2.459-2.57 2.459zm21.428-18.865c-1.417 0-2.57-1.103-2.57-2.459 0-1.355 1.153-2.458 2.57-2.458 1.417 0 2.57 1.103 2.57 2.458 0 1.356-1.153 2.459-2.57 2.459zm21.428 15.67c-1.418 0-2.57-1.103-2.57-2.458 0-1.356 1.152-2.459 2.57-2.459 1.417 0 2.57 1.103 2.57 2.459 0 1.355-1.153 2.458-2.57 2.458z"/>
        <path fill="#909090" d="M86.47 0H7.478C3.355 0 0 3.36 0 7.49v10.886a1.53 1.53 0 0 0 1.529 1.532 1.53 1.53 0 0 0 1.529-1.532V7.49a4.429 4.429 0 0 1 4.42-4.427H86.47a4.429 4.429 0 0 1 4.42 4.427v52.274h-9.58a1.53 1.53 0 0 0-1.53 1.532 1.53 1.53 0 0 0 1.53 1.531h9.58v2.807a4.429 4.429 0 0 1-4.42 4.428H7.478a4.429 4.429 0 0 1-4.42-4.428v-2.807h73.155a1.53 1.53 0 0 0 1.53-1.531 1.53 1.53 0 0 0-1.53-1.532H3.058V23.481a1.53 1.53 0 0 0-1.53-1.531A1.53 1.53 0 0 0 0 23.48v42.154c0 4.13 3.355 7.49 7.478 7.49h26.2l-3.76 8.812h-7.346a1.53 1.53 0 0 0-1.53 1.532A1.53 1.53 0 0 0 22.573 85h48.804a1.53 1.53 0 0 0 1.529-1.531 1.53 1.53 0 0 0-1.53-1.532H64.03l-3.76-8.812h26.2c4.123 0 7.477-3.36 7.477-7.49V7.49c0-4.13-3.354-7.49-7.477-7.49zM60.704 81.937h-27.46l2.612-6.122h22.236l2.612 6.122z"/>
        <path fill="#C8D400" d="M49.322 64.315a2.022 2.022 0 0 0-2.166-.843c-.85.214-1.48.988-1.522 1.871-.088 1.839 2.203 2.838 3.467 1.506a2.059 2.059 0 0 0 .221-2.534z"/>
    </g>
</svg>
