<svg xmlns="http://www.w3.org/2000/svg" width="70" height="83" viewBox="0 0 70 83">
    <g fill="none" fill-rule="nonzero">
        <path fill="#909090" d="M32.705 22.758H32.7a1.834 1.834 0 0 0-1.731 1.215l-8.11 23.18a1.766 1.766 0 0 0 .242 1.627 1.85 1.85 0 0 0 1.494.752h16.408c.596 0 1.154-.282 1.498-.757a1.765 1.765 0 0 0 .235-1.634l-8.297-23.18a1.834 1.834 0 0 0-1.733-1.203zm-5.541 23.18l5.56-15.892 5.69 15.891h-11.25z"/>
        <path fill="#909090" d="M40.364 9.2a1.821 1.821 0 0 0-1.71-1.168H25.604c-.764 0-1.447.467-1.71 1.169L.111 72.57a1.75 1.75 0 0 0 .216 1.634c.341.478.9.763 1.495.763h13.325a1.82 1.82 0 0 0 1.727-1.214l5.042-14.629h20.346l5.219 14.647a1.82 1.82 0 0 0 1.72 1.196h13.234c.595 0 1.153-.285 1.494-.763a1.75 1.75 0 0 0 .216-1.635L40.364 9.2zm10.133 62.202l-5.219-14.646a1.82 1.82 0 0 0-1.72-1.196h-22.95a1.82 1.82 0 0 0-1.727 1.213l-5.042 14.629H4.433l22.445-59.804H37.38l22.444 59.804h-9.328z"/>
        <path fill="#C8D400" d="M67.605 0c-1.109 0-2.008.804-2.008 1.797v79.406c0 .993.899 1.797 2.008 1.797s2.008-.804 2.008-1.797V1.797c0-.993-.9-1.797-2.008-1.797z"/>
    </g>
</svg>
