<svg xmlns="http://www.w3.org/2000/svg" width="104" height="86" viewBox="0 0 104 86">
    <g fill="none" fill-rule="nonzero">
        <path fill="#909090" d="M98.72 17.2H79.359L76.725 4.149C76.235 1.74 74.107.007 71.633 0h-22.03C47.129.007 45 1.74 44.51 4.149L41.878 17.2h-3.775v-5.16c0-.95-.776-1.72-1.732-1.72H25.979c-.956 0-1.732.77-1.732 1.72v5.16h-1.732a5.183 5.183 0 0 0-3.464 1.342 5.183 5.183 0 0 0-3.463-1.342H5.196C2.326 17.2 0 19.51 0 22.36v3.44a5.108 5.108 0 0 0 1.35 3.44A5.108 5.108 0 0 0 0 32.68v41.28c0 2.85 2.326 5.16 5.196 5.16h37.819c9.918 9.173 25.289 9.173 35.207 0H98.72c2.87 0 5.196-2.31 5.196-5.16v-51.6c0-2.85-2.327-5.16-5.196-5.16zm-81.4 58.48H5.195c-.957 0-1.732-.77-1.732-1.72V32.68c0-.95.775-1.72 1.732-1.72h12.123v44.72zm0-49.88c0 .95-.776 1.72-1.732 1.72H5.196c-.957 0-1.732-.77-1.732-1.72v-3.44c0-.95.775-1.72 1.732-1.72h10.392c.956 0 1.731.77 1.731 1.72v3.44zM47.903 4.816a1.73 1.73 0 0 1 1.699-1.376h22.03a1.73 1.73 0 0 1 1.7 1.376L75.824 17.2H45.412l2.492-12.384zM27.71 13.76h6.928v3.44H27.71v-3.44zm32.907 68.8c-12.435 0-22.515-10.011-22.515-22.36 0-12.35 10.08-22.36 22.515-22.36S83.133 47.85 83.133 60.2c-.014 12.343-10.086 22.346-22.515 22.36zm39.835-8.6c0 .95-.776 1.72-1.732 1.72H81.353c8.644-11.373 6.368-27.551-5.083-36.136-11.452-8.585-27.742-6.325-36.387 5.048a25.658 25.658 0 0 0 0 31.088h-19.1V22.36c0-.95.776-1.72 1.732-1.72h76.206c.956 0 1.732.77 1.732 1.72v51.6z"/>
        <path fill="#C8D400" d="M60.917 42.104c-10.39 0-18.813 8.423-18.813 18.813 0 10.39 8.423 18.812 18.813 18.812 10.39 0 18.812-8.422 18.812-18.812-.012-10.385-8.428-18.8-18.812-18.813zm0 34.205c-8.501 0-15.392-6.892-15.392-15.392 0-8.501 6.891-15.392 15.392-15.392 8.5 0 15.392 6.89 15.392 15.392-.01 8.497-6.895 15.382-15.392 15.392z"/>
        <path fill="#909090" d="M72.618 22.396H48.32c-.959 0-1.736.735-1.736 1.642v6.57c0 .907.777 1.642 1.736 1.642h24.3c.958 0 1.735-.735 1.735-1.642v-6.57c0-.907-.777-1.642-1.736-1.642zm-1.735 6.57H50.055V25.68h20.828v3.284z"/>
        <path fill="#C8D400" d="M96.9 22.396h-6.57c-.907 0-1.642.735-1.642 1.642v6.57c0 .907.735 1.642 1.642 1.642h6.57c.906 0 1.642-.735 1.642-1.642v-6.57c0-.907-.736-1.642-1.643-1.642zm-1.643 6.57h-3.285V25.68h3.285v3.284z"/>
    </g>
</svg>
