<svg xmlns="http://www.w3.org/2000/svg" xmlns:xlink="http://www.w3.org/1999/xlink" width="186" height="38" viewBox="0 0 186 38">
    <defs>
        <path id="a" d="M.11.626h20.68V30H.11z"/>
        <path id="c" d="M0 39h186V0H0z"/>
    </defs>
    <g fill="none" fill-rule="evenodd">
        <g transform="translate(29 8)">
            <mask id="b" fill="#fff">
                <use xlink:href="#a"/>
            </mask>
            <path fill="#FEFEFE" d="M14.796 10.664c0-2.81-1.971-4.544-4.265-4.544-2.294 0-4.306 1.735-4.306 4.544 0 2.81 1.852 4.545 4.306 4.545 2.494 0 4.265-1.735 4.265-4.545zM5.5 21.117c.403 1.984 2.012 3.43 4.305 3.43 3.059 0 4.95-1.53 4.95-5.248v-.95c-.725 1.117-2.455 2.314-5.352 2.314-5.31 0-9.294-4.297-9.294-9.999C.11 5.252 3.932.626 9.404.626c3.26 0 4.99 1.486 5.553 2.56V.997h5.834V18.97C20.79 24.877 17.572 30 10.088 30 4.334 30 .673 26.365.11 22.688l5.391-1.57z" mask="url(#b)"/>
        </g>
        <path fill="#FEFEFE" d="M67.084 17.579c-.08-1.579-1.127-3.49-4.024-3.49-2.575 0-3.864 1.953-3.983 3.49h8.007zM55.696 7.275L60.244 1h5.753l4.588 6.275h-4.668L63.06 4.323l-2.816 2.952h-4.548zm16.941 17.16C71.671 28.007 68.493 31 63.421 31 57.91 31 53 26.928 53 19.989c0-6.648 4.788-10.886 9.98-10.886C69.176 9.103 73 13.05 73 19.698c0 .872-.08 1.828-.121 1.953H58.955c.122 2.327 2.174 3.989 4.548 3.989 2.213 0 3.46-1.08 4.024-2.701l5.11 1.495zM82.51 30H76V9.535h6.295v2.347C83.452 9.947 86.065 9 88.25 9 93.602 9 96 12.665 96 17.153V30h-6.51V18.224c0-2.018-1.113-3.541-3.469-3.541-2.14 0-3.51 1.523-3.51 3.582V30zM102.992 19.52c0 3.148 2.103 4.901 4.604 4.901 2.34 0 3.65-1.475 4.087-2.95L117 23.106c-.873 3.467-4.127 6.895-9.404 6.895C101.722 30 97 25.655 97 19.52 97 13.342 101.603 9 107.397 9c5.436 0 8.61 3.346 9.484 6.893l-5.397 1.634c-.437-1.514-1.626-2.949-3.968-2.949-2.5 0-4.524 1.753-4.524 4.941"/>
        <mask id="d" fill="#fff">
            <use xlink:href="#c"/>
        </mask>
        <path fill="#FEFEFE" d="M119.584 31h6.833V10.123h-6.833V31zm3.371-31C125.202 0 127 1.68 127 3.738s-1.798 3.739-4.045 3.739c-2.157 0-3.955-1.68-3.955-3.739S120.798 0 122.955 0zM140.555 21.656v-.878l-3.933.599c-1.34.199-2.344.798-2.344 2.195 0 1.039.711 2.036 2.468 2.036 1.884 0 3.809-.879 3.809-3.952m-6.402-3.673l4.895-.718c1.13-.16 1.507-.679 1.507-1.358 0-1.158-1.047-2.155-3.055-2.155-2.217 0-3.432 1.436-3.557 2.913l-5.524-1.078c.25-2.834 3.013-6.587 9.123-6.587 6.738 0 9.206 3.593 9.206 7.665v9.702c0 1.557.21 2.875.252 3.074h-5.733c-.043-.16-.21-.879-.21-2.236-1.088 1.676-3.096 2.795-5.859 2.795-4.56 0-7.198-2.874-7.198-6.029 0-3.513 2.72-5.51 6.153-5.988" mask="url(#d)"/>
        <path fill="#C7D300" d="M179.458 29V12.093H173V7.887c4.042-.04 6.917-2.243 7.375-4.887H186v26h-6.542z" mask="url(#d)"/>
        <path fill="#FEFEFE" d="M18.908 1h-7.69L0 30h6.975l1.291-3.548.001-.002.851-2.34h.01l2.955-8.027L14.959 8.2l3.571 10.02h-5.608l-2.067 5.891h9.776L22.773 30H30z" mask="url(#d)"/>
        <path fill="#C7D300" d="M161.46 24.724h-4.093V6.359h3.472c2.563 0 3.844 1.226 3.844 3.107 0 1.964-1.487 3.15-3.762 3.15h-2.019v5.318h2.557c2.563 0 4.05 1.39 4.05 3.395 0 2.086-1.528 3.395-4.05 3.395m5.333-9.735c2.397-.777 4.299-3.232 4.299-6.218 0-4.458-3.348-7.771-9.137-7.771H151v29h11.823c5.54 0 9.177-3.477 9.177-8.221 0-3.763-2.563-6.177-5.208-6.79" mask="url(#d)"/>
    </g>
</svg>
