<svg xmlns="http://www.w3.org/2000/svg" width="99" height="65" viewBox="0 0 99 65">
    <g fill="none" fill-rule="nonzero">
        <path fill="#909090" d="M96.73 0H84.921c-1.254 0-2.27 1.04-2.27 2.321v12.072c0 1.282 1.016 2.321 2.27 2.321h3.564c-.501 8.831-3.854 17.26-9.571 23.945-5.576 6.522-13.042 10.998-21.24 12.785v-2.837c0-1.282-1.017-2.321-2.271-2.321H43.596c-1.254 0-2.27 1.039-2.27 2.321v2.837c-8.2-1.787-15.665-6.263-21.241-12.785-5.718-6.686-9.07-15.114-9.572-23.945h3.565c1.254 0 2.27-1.039 2.27-2.321V2.32C16.349 1.04 15.333 0 14.079 0H2.271C1.017 0 0 1.04 0 2.321v12.072c0 1.282 1.017 2.321 2.27 2.321h3.695c.506 9.957 4.26 19.468 10.7 27.001a43.846 43.846 0 0 0 13.456 10.607h-2.644c-1.254 0-2.27 1.04-2.27 2.322s1.016 2.321 2.27 2.321h13.849v3.714c0 1.282 1.016 2.321 2.27 2.321h11.808c1.254 0 2.27-1.04 2.27-2.321v-3.714h13.849c1.254 0 2.27-1.04 2.27-2.321 0-1.282-1.016-2.322-2.27-2.322h-2.644a43.839 43.839 0 0 0 13.455-10.607c6.441-7.533 10.194-17.044 10.7-27h3.695c1.254 0 2.271-1.04 2.271-2.322V2.32C99 1.04 97.983 0 96.73 0zM4.54 4.643h7.266v7.428H4.541V4.643zm41.326 55.714V52.93h7.266v7.428h-7.266zm48.592-48.286h-7.266V4.643h7.266v7.428z"/>
        <path fill="#C8D400" d="M95.086 51.395H88.33c-1.333 0-2.414.987-2.414 2.205v.882h-7.001c-1.333 0-2.414.987-2.414 2.204 0 1.218 1.08 2.205 2.414 2.205h7.001v.881c0 1.218 1.08 2.205 2.414 2.205h6.757c1.333 0 2.414-.987 2.414-2.205V53.6c0-1.218-1.08-2.205-2.414-2.205zm-2.413 6.173h-1.93v-1.764h1.93v1.764zM21.586 54.482h-7.001V53.6c0-1.218-1.08-2.205-2.414-2.205H5.414C4.08 51.395 3 52.382 3 53.6v6.172c0 1.218 1.08 2.205 2.414 2.205h6.757c1.333 0 2.414-.987 2.414-2.205v-.881h7.001c1.333 0 2.414-.987 2.414-2.205 0-1.217-1.08-2.204-2.414-2.204zM9.758 57.568h-1.93v-1.764h1.93v1.764z"/>
    </g>
</svg>
