<svg xmlns="http://www.w3.org/2000/svg" width="106" height="95" viewBox="0 0 106 95">
    <g fill="none" fill-rule="nonzero">
        <path fill="#C8D400" d="M52.823 26C47.406 26 43 30.387 43 35.78c0 5.392 4.406 9.779 9.823 9.779 5.416 0 9.823-4.387 9.823-9.78 0-5.392-4.407-9.779-9.823-9.779zm0 16.1c-3.501 0-6.35-2.835-6.35-6.32 0-3.486 2.849-6.322 6.35-6.322 3.5 0 6.35 2.836 6.35 6.321 0 3.486-2.85 6.322-6.35 6.322z"/>
        <path fill="#909090" d="M69.52 29.318a1.687 1.687 0 0 0-2.138-1.05 1.676 1.676 0 0 0-1.054 2.13c.522 1.529.787 3.132.787 4.764 0 8.164-6.672 14.806-14.873 14.806-8.2 0-14.872-6.642-14.872-14.806 0-8.165 6.672-14.807 14.872-14.807 4.463 0 8.651 1.97 11.49 5.405a1.69 1.69 0 0 0 2.373.23 1.673 1.673 0 0 0 .23-2.362A18.223 18.223 0 0 0 52.242 17C42.183 17 34 25.147 34 35.162c0 10.014 8.184 18.162 18.242 18.162 10.06 0 18.243-8.148 18.243-18.162 0-2-.325-3.967-.965-5.844z"/>
        <path fill="#C8D400" d="M52.364 8C37.275 8 25 20.22 25 35.243c0 15.021 12.275 27.242 27.364 27.242 15.088 0 27.363-12.22 27.363-27.242S67.452 8 52.364 8zm0 51.047c-13.184 0-23.91-10.678-23.91-23.805 0-13.126 10.725-23.804 23.91-23.804 13.184 0 23.91 10.679 23.91 23.805s-10.726 23.804-23.91 23.804z"/>
        <path fill="#FFF" d="M53.617 34.69a1.42 1.42 0 0 0-1.75-.585A1.413 1.413 0 0 0 51 35.398c0 .561.349 1.076.867 1.291a1.421 1.421 0 0 0 1.624-.404c.37-.447.419-1.095.126-1.595z"/>
        <path fill="#909090" d="M96.868 0H8.378C3.757 0 0 3.756 0 8.372v12.166a1.712 1.712 0 0 0 3.425 0V8.372a4.956 4.956 0 0 1 4.952-4.949h88.491c2.73 0 4.952 2.22 4.952 4.949v58.423H91.088a1.712 1.712 0 1 0 0 3.424h10.732v3.137a4.956 4.956 0 0 1-4.952 4.948H8.377a4.956 4.956 0 0 1-4.952-4.948v-3.137H85.38a1.712 1.712 0 1 0 0-3.424H3.425V26.244a1.712 1.712 0 0 0-3.425 0v47.112c0 4.617 3.758 8.372 8.377 8.372h29.351l-4.213 9.849h-8.229a1.712 1.712 0 1 0 0 3.423h54.673a1.712 1.712 0 1 0 0-3.423h-8.23l-4.212-9.849h29.35c4.62 0 8.378-3.755 8.378-8.372V8.372c0-4.616-3.758-8.372-8.377-8.372zM68.004 91.577H37.241l2.927-6.843h24.91l2.926 6.843z"/>
        <path fill="#C8D400" d="M53.09 73.27a1.416 1.416 0 0 0-1.51-.582 1.415 1.415 0 0 0-1.06 1.292c-.062 1.269 1.535 1.958 2.416 1.04a1.41 1.41 0 0 0 .154-1.75z"/>
    </g>
</svg>
