<svg xmlns="http://www.w3.org/2000/svg" width="95" height="89" viewBox="0 0 95 89">
    <g fill="none" fill-rule="nonzero">
        <path fill="#909090" d="M86.88 0H7.513C3.37 0 0 3.362 0 7.495v10.893c0 .846.688 1.532 1.536 1.532.849 0 1.536-.686 1.536-1.532V7.495a4.44 4.44 0 0 1 4.44-4.43H86.88c2.45 0 4.443 1.987 4.443 4.43v52.31h-5.985V40.86c0-2.974-2.425-5.393-5.406-5.393H57.563c-2.981 0-5.406 2.42-5.406 5.393V70.11H7.513a4.44 4.44 0 0 1-4.44-4.43v-2.81h45.5c.848 0 1.536-.685 1.536-1.532 0-.846-.688-1.532-1.536-1.532h-45.5v-36.31c0-.846-.689-1.533-1.537-1.533S0 22.65 0 23.496V65.68c0 4.133 3.37 7.495 7.513 7.495h26.324l-3.778 8.819h-7.38c-.848 0-1.536.686-1.536 1.532 0 .847.688 1.533 1.536 1.533H48.397c.848 0 1.536-.687 1.536-1.533 0-.846-.688-1.532-1.536-1.532H33.4l2.625-6.128h16.132v7.74c0 2.975 2.425 5.394 5.406 5.394h22.368c2.98 0 5.406-2.42 5.406-5.393V62.87h5.985v2.81a4.425 4.425 0 0 1-2.714 4.082 1.531 1.531 0 0 0 .599 2.945c.2 0 .403-.04.598-.122a7.484 7.484 0 0 0 4.589-6.905V7.495C94.394 3.362 91.024 0 86.88 0zM55.229 40.86a2.334 2.334 0 0 1 2.334-2.33h22.368a2.334 2.334 0 0 1 2.334 2.33v35.676H55.229V40.86zm27.036 42.747a2.334 2.334 0 0 1-2.334 2.328H57.563a2.334 2.334 0 0 1-2.334-2.328V79.6h27.036v4.006z"/>
        <path fill="#C8D400" d="M49.56 63.967c-.97-.986-3.336-.672-3.675.49-.163.56.227 1.148.965 1.436.736.288 1.693.232 2.34-.14.775-.443.928-1.217.37-1.786zM71.323 81.742c-.323-.508-1.09-.847-1.924-.832-.83.014-1.578.374-1.858.894-.286.531-.033 1.14.621 1.499.682.373 1.677.404 2.411.08.802-.354 1.105-1.05.75-1.64zM72.541 40.455h-8.885c-.898 0-1.626.603-1.626 1.348 0 .745.728 1.349 1.626 1.349h8.885c.898 0 1.626-.604 1.626-1.349s-.728-1.348-1.626-1.348z"/>
    </g>
</svg>
